<?xml version="1.0" encoding="UTF-8" standalone="no"?>
<!-- Created with Inkscape (http://www.inkscape.org/) -->

<svg
   xmlns:dc="http://purl.org/dc/elements/1.1/"
   xmlns:cc="http://creativecommons.org/ns#"
   xmlns:rdf="http://www.w3.org/1999/02/22-rdf-syntax-ns#"
   xmlns:svg="http://www.w3.org/2000/svg"
   xmlns="http://www.w3.org/2000/svg"
   xmlns:sodipodi="http://sodipodi.sourceforge.net/DTD/sodipodi-0.dtd"
   xmlns:inkscape="http://www.inkscape.org/namespaces/inkscape"
   width="355mm"
   height="300mm"
   viewBox="0 0 355 300"
   version="1.1"
   id="svg510"
   inkscape:version="0.92.4 (5da689c313, 2019-01-14)"
   sodipodi:docname="IdleButterFly2 - Copie.svg">
  <title
     id="title43">IdleButterFly2</title>
  <defs
     id="defs504" />
  <sodipodi:namedview
     id="base"
     pagecolor="#ffffff"
     bordercolor="#666666"
     borderopacity="1.0"
     inkscape:pageopacity="0.0"
     inkscape:pageshadow="2"
     inkscape:zoom="0.35"
     inkscape:cx="252.036"
     inkscape:cy="199.72917"
     inkscape:document-units="mm"
     inkscape:current-layer="layer1"
     showgrid="false"
     inkscape:window-width="1600"
     inkscape:window-height="837"
     inkscape:window-x="-8"
     inkscape:window-y="-8"
     inkscape:window-maximized="1" />
  <metadata
     id="metadata507">
    <rdf:RDF>
      <cc:Work
         rdf:about="">
        <dc:format>image/svg+xml</dc:format>
        <dc:type
           rdf:resource="http://purl.org/dc/dcmitype/StillImage" />
        <dc:title>IdleButterFly2</dc:title>
      </cc:Work>
    </rdf:RDF>
  </metadata>
  <g
     inkscape:label="Calque 1"
     inkscape:groupmode="layer"
     id="layer1"
     transform="translate(0,3)">
    <g
       id="g7502"
       transform="matrix(0.47214703,0.02066188,-0.02066188,0.47214703,1663.0793,1598.5912)"
       inkscape:export-filename="C:\Users\Robert\Desktop\butterfly\body-pieces-and-spriter-file\yellow\side-body.png"
       inkscape:export-xdpi="90"
       inkscape:export-ydpi="90">
      <path
         style="color:#000000;display:inline;overflow:visible;visibility:visible;fill:#180614;fill-opacity:1;fill-rule:nonzero;stroke:none;stroke-width:15;marker:none;enable-background:accumulate"
         d="m -3074.7148,-2819.099 c -6.6565,-0.1026 -15.6172,2.6769 -19.0153,10.5867 -20.8512,9.0528 -51.1663,28.7216 -65.7378,57.6841 l 7.5256,8.7099 c 12.0526,-32.0272 32.8361,-51.3541 60.5017,-60.6755 0.5616,0.2738 1.2774,0.6102 2.247,1.0265 3.513,1.5082 9.8121,1.1687 15.2632,0.4985 5.4511,-0.6703 12.5861,-2.0235 12.4649,-6.7156 -0.06,-2.3294 -0.5748,-3.828 -1.5899,-5.1614 l 0.021,-0.029 h -0.043 c -1.0296,-1.3406 -2.565,-2.5179 -4.6849,-4.1936 -1.3249,-1.0474 -3.9019,-1.6832 -6.9532,-1.7303 z"
         id="path7504"
         inkscape:connector-curvature="0" />
      <path
         inkscape:connector-curvature="0"
         id="path7506"
         d="m -3027.9645,-2818.5938 c -9.8126,-0.1093 -23.0219,2.8525 -28.0312,11.2813 -30.7375,9.6467 -75.4259,30.606 -96.9063,61.4687 l 11.0937,9.2813 c 17.7672,-34.1285 48.4049,-54.7234 89.1876,-64.6563 0.8279,0.2917 1.8831,0.6502 3.3124,1.0938 5.1787,1.6072 14.4644,1.2454 22.5,0.5312 8.0357,-0.7142 18.5537,-2.1562 18.375,-7.1562 -0.089,-2.4822 -0.8474,-4.0791 -2.3437,-5.5 l 0.031,-0.031 h -0.063 c -1.5178,-1.4286 -3.7812,-2.6831 -6.9062,-4.4688 -1.9531,-1.1161 -5.7519,-1.7936 -10.25,-1.8438 z"
         style="color:#000000;display:inline;overflow:visible;visibility:visible;fill:#180614;fill-opacity:1;fill-rule:nonzero;stroke:none;stroke-width:15;marker:none;enable-background:accumulate" />
      <path
         inkscape:connector-curvature="0"
         id="path7508"
         d="m -3171.4286,-2739.7808 c 0,-16.0714 3.5714,-19.2857 11.0714,-18.9285 7.5,0.3571 14.2857,10 14.2857,10 0,0 6.4286,35.3571 0,33.5714 -6.4285,-1.7857 -25.3571,-24.6429 -25.3571,-24.6429 z"
         style="color:#000000;display:inline;overflow:visible;visibility:visible;fill:#181400;fill-opacity:1;fill-rule:nonzero;stroke:none;stroke-width:15;marker:none;enable-background:accumulate" />
      <path
         sodipodi:nodetypes="csssc"
         inkscape:connector-curvature="0"
         id="path7510"
         d="m -3195.1128,-2741.5546 c 29.7277,-21.4429 50.9787,-10.5732 55.0131,3.0328 4.0318,13.5971 -0.8257,35.4229 -17.1309,46.1813 -8.3462,5.5069 -24.7241,4.8806 -33.9835,2.4438 -9.2594,-2.4367 -1.9494,-51.6579 -3.8987,-51.6579 z"
         style="color:#000000;display:inline;overflow:visible;visibility:visible;fill:#180614;fill-opacity:1;fill-rule:nonzero;stroke:none;stroke-width:15;marker:none;enable-background:accumulate" />
      <g
         transform="rotate(40.629957,-1933.3574,-2907.6541)"
         id="g7512">
        <g
           id="g7514"
           transform="rotate(11.034314,-1293.9701,-5956.1901)">
          <g
             transform="translate(-2.5253814,9.0913733)"
             id="g7516">
            <path
               style="color:#000000;display:inline;overflow:visible;visibility:visible;fill:#180614;fill-opacity:1;stroke:none;stroke-width:15;marker:none;enable-background:accumulate"
               d="m -2029.7828,-1703.8539 c 5,-43.2143 38.9286,-61.4285 53.9286,-58.9285 12.5444,2.0907 39.2857,21.0714 32.8571,36.7857 -6.4286,15.7142 -21.4286,57.8571 -43.5714,58.5715 -15.2618,0.4923 -47.5,-22.1429 -43.2143,-36.4287 z"
               id="path7518"
               inkscape:connector-curvature="0"
               sodipodi:nodetypes="csssc" />
            <path
               style="color:#000000;display:inline;overflow:visible;visibility:visible;fill:#3f3307;fill-opacity:1;stroke:none;stroke-width:15;marker:none;enable-background:accumulate"
               d="m -1979.5625,-1756.9707 c -24.1694,3.6933 -39.9198,26.9005 -43.875,49.625 -2.3009,7.2045 1.5439,14.3351 7.3125,18.5938 8.6499,8.1548 20.1331,16.2157 32.4688,14.625 13.7406,-5.1072 19.497,-20.6188 26.0031,-32.6336 3.6761,-8.387 8.803,-16.9529 9.1843,-26.1476 -3.5113,-12.1613 -15.6795,-18.9973 -26.6874,-23.5626 -1.4293,-0.408 -2.9196,-0.6318 -4.4063,-0.5 z"
               id="path7520"
               inkscape:connector-curvature="0" />
            <path
               id="path7522"
               transform="translate(2.5253814,-9.0913733)"
               d="m -1980.9688,-1747.9062 c -0.3711,-0.01 -0.7533,0 -1.125,0.031 -24.1693,3.6933 -39.9197,26.9005 -43.875,49.625 -2.3008,7.2045 1.5439,14.335 7.3126,18.5938 0.4771,0.4498 0.9747,0.8961 1.4687,1.3437 -5.3399,-36.1131 29.2451,-59.8508 46.375,-59.375 3.2199,0.089 6.0544,-0.4258 8.5,-1.3437 -4.6893,-3.5024 -10.1646,-6.1829 -15.375,-8.3438 -1.072,-0.306 -2.1679,-0.5048 -3.2813,-0.5312 z"
               style="color:#000000;display:inline;overflow:visible;visibility:visible;opacity:0.07079647;fill:#504416;fill-opacity:1;stroke:none;stroke-width:15;marker:none;enable-background:accumulate"
               inkscape:connector-curvature="0" />
            <path
               id="path7524"
               transform="translate(2.5253814,-9.0913733)"
               d="m -1958.7812,-1736.0625 c -2.9184,24.1189 -24.0295,49.6484 -35.25,62.5313 -1.7497,2.0088 -3.6803,4.2768 -5.6563,6.6874 4.309,1.6378 8.841,2.4133 13.5,1.8126 13.7406,-5.1072 19.4939,-20.6103 26,-32.625 3.6761,-8.387 8.8062,-16.9616 9.1875,-26.1563 -1.4083,-4.8777 -4.2211,-8.8885 -7.7812,-12.25 z"
               style="color:#000000;display:inline;overflow:visible;visibility:visible;opacity:0.17699112;fill:#000000;fill-opacity:1;stroke:none;stroke-width:15;marker:none;enable-background:accumulate"
               inkscape:connector-curvature="0" />
          </g>
        </g>
        <g
           id="g7526"
           transform="rotate(11.034314,-1913.7256,-7134.9452)">
          <path
             sodipodi:nodetypes="ccscccccscsscscccsccsc"
             inkscape:connector-curvature="0"
             id="path7528"
             d="m -1771.9602,-1794.3091 c -3.5903,6.4896 -7.1659,12.6676 -10.692,18.5995 -5.6107,0.4304 -12.4888,-2.489 -7.4939,5.7867 0.7437,1.2322 1.2665,2.5137 1.6411,3.8466 -9.8062,15.833 -19.3119,29.5873 -28.5355,41.5235 -9.9431,-1.2486 -15.8139,-5.2984 -11.364,-2.1997 1.8454,1.285 4.1497,4.8929 6.2313,8.6907 -12.6919,15.7161 -24.759,28.0353 -36.0855,37.7447 -6.7022,-1.466 -7.1754,-4.433 -9.3994,-5.4131 -4.1549,-1.831 10.7454,6.2939 -6.4472,17.7192 -32.6592,22.7632 -53.4408,21.0871 -67.4485,24.5553 -26.402,6.5369 5.9039,-51.1356 13.2603,-65.1314 7.3564,-13.9958 17.3888,-9.7431 17.3888,-9.7431 0,0 -6.8851,-9.2376 0.3688,-18.1837 7.254,-8.9462 20.7074,-24.8461 25.7981,-26.7636 5.0907,-1.9174 15.1531,0.3074 15.1531,0.3074 0,0 -5.8749,-9.1968 3.44,-20.1219 9.315,-10.9249 13.6575,-25.9993 22.7676,-26.8249 9.1099,-0.8255 20.0806,5.4708 20.0806,5.4708 l -3.6204,-20.2963 c 0,0 20.4432,-11.6995 34.3571,-0.3033 13.9138,11.3962 20.5996,30.7366 20.5996,30.7366 z"
             style="color:#000000;display:inline;overflow:visible;visibility:visible;fill:#180614;fill-opacity:1;stroke:none;stroke-width:15;marker:none;enable-background:accumulate" />
          <path
             sodipodi:nodetypes="ccccccccccccccccccccccccc"
             inkscape:connector-curvature="0"
             id="path7530"
             d="m -1806.8534,-1825.3781 c -4.7501,-0.1971 -15.033,1.1191 -15.8332,3.7109 1.6964,9.5601 7.0773,16.3382 8.7989,25.8938 -9.8644,-4.5827 -14.0836,-11.1766 -31.1587,-9.2647 -7.6408,8.535 -13.4735,21.0223 -20.2264,30.1441 -1.7952,8.8296 2.4187,10.7527 7.7993,16.3006 -10.6849,1.8134 -16.197,-2.2661 -26.6431,0.3142 -7.7844,6.406 -13.1192,16.7855 -18.9484,25.1542 -3.4119,3.5845 -5.011,7.7686 -1.8278,11.5549 4.3858,6.014 4.6042,3.6557 11.8337,8.371 -8.9435,-1.3 -12.7502,-3.4241 -22.0258,-1.9429 -4.811,2.9541 -7.7531,14.4249 -10.9776,18.9545 -7.8562,14.436 -15.8042,29.1305 -20.5,44.8125 -2.1333,6.047 6.6962,0.8778 10.0555,1.0456 19.0381,-3.8263 44.6591,-12.0755 60.5418,-23.6572 12.0772,-14.1971 -9.1798,-16.0116 -0.4098,-18.2634 5.7296,-1.47 10.5562,3.6368 16.0938,3.0625 9.8186,-9.2708 21.5347,-16.4354 29.0426,-27.2246 4.0588,-5.4742 -9.9465,-14.5712 -8.5647,-17.2027 3.0323,-2.249 15.0717,2.5358 19.4308,3.584 8.0329,-10.6167 21.8384,-27.2912 28.1497,-38.8982 -10.9254,-9.7207 -16.5783,-10.6271 3.7228,-14.7898 3.2704,1.2733 1.75,-4.0911 4.2188,-5.1874 2.1321,-2.5929 4.8955,-6.4166 1.7874,-9.3554 -5.4288,-10.4136 -7.7476,-27.5645 -24.3596,-27.1165 z"
             style="color:#000000;display:inline;overflow:visible;visibility:visible;fill:#3f3307;fill-opacity:1;stroke:none;stroke-width:15;marker:none;enable-background:accumulate" />
          <path
             id="path7532"
             d="m -1790.75,-1816.3438 c -0.8103,5.551 -2.3462,13.1999 -2.5312,16.5313 -0.2527,4.5457 -9.5946,14.1511 -12.625,14.6563 -3.0306,0.505 -11.625,14.1562 -11.625,14.1562 0,0 -5.798,21.95 -19.6876,30.0312 -13.8895,8.0814 -26.75,13.125 -26.75,13.125 0,0 2.001,15.9383 -4.3124,18.9688 -6.3135,3.0304 -12.8758,2.2432 -15.9063,6.0312 -2.5955,3.2445 -4.1303,27.24 -57.6563,38.3438 -1.7791,4.3063 -3.3866,8.6765 -4.7187,13.125 -2.1333,6.047 6.7032,0.8635 10.0625,1.0312 19.0381,-3.8262 44.6486,-12.0745 60.5312,-23.6562 12.0772,-14.1971 -9.1762,-15.9982 -0.4062,-18.25 5.7296,-1.47 10.5561,3.6368 16.0938,3.0625 9.8186,-9.2708 21.5233,-16.4296 29.0312,-27.2187 4.0588,-5.4743 -9.9443,-14.5873 -8.5625,-17.2188 3.0323,-2.249 15.0784,2.5456 19.4375,3.5938 8.0329,-10.6168 21.845,-27.2993 28.1562,-38.9063 -10.9254,-9.7207 -16.5823,-10.6185 3.7188,-14.7813 3.2704,1.2734 1.7499,-4.0912 4.2188,-5.1874 2.1321,-2.593 4.8893,-6.405 1.7812,-9.3438 -2.7882,-5.3483 -4.7449,-12.4881 -8.25,-18.0938 z"
             style="color:#000000;display:inline;overflow:visible;visibility:visible;opacity:0.25663715;fill:#000000;fill-opacity:1;fill-rule:nonzero;stroke:none;stroke-width:15;marker:none;enable-background:accumulate"
             inkscape:connector-curvature="0" />
          <path
             inkscape:connector-curvature="0"
             id="path7534"
             d="m -1914.7442,-1691.2122 c -16.1624,8.8389 -22.4759,18.1828 -20.7081,18.1828 1.7678,0 10.3541,-7.0711 16.9201,-10.1015 6.566,-3.0305 6.0609,-7.5762 6.0609,-7.5762 z"
             style="color:#000000;display:inline;overflow:visible;visibility:visible;fill:#000000;fill-opacity:1;fill-rule:nonzero;stroke:none;stroke-width:15;marker:none;enable-background:accumulate" />
          <path
             inkscape:connector-curvature="0"
             id="path7536"
             d="m -1856.1553,-1724.0421 c -6.0609,20.9607 -10.1015,25.2538 -6.3135,23.7386 3.7881,-1.5153 12.8795,-17.1726 12.8795,-21.4658 0,-4.2931 -5.8084,-5.5558 -5.8084,-5.5558 z"
             style="color:#000000;display:inline;overflow:visible;visibility:visible;fill:#000000;fill-opacity:1;fill-rule:nonzero;stroke:none;stroke-width:15;marker:none;enable-background:accumulate" />
          <path
             sodipodi:nodetypes="cccc"
             inkscape:connector-curvature="0"
             id="path7538"
             d="m -1808.0468,-1741.4673 c 2.0203,8.5863 3.6618,17.9303 3.6618,17.9303 0,0 3.6618,-18.9404 2.1466,-21.9709 -1.5152,-3.0304 -5.8084,4.0406 -5.8084,4.0406 z"
             style="color:#000000;display:inline;overflow:visible;visibility:visible;fill:#000000;fill-opacity:1;fill-rule:nonzero;stroke:none;stroke-width:15;marker:none;enable-background:accumulate" />
          <path
             inkscape:connector-curvature="0"
             id="path7540"
             d="m -1890.5005,-1673.5345 c -1.5152,18.1828 -3.0305,26.7691 -3.0305,26.7691 0,0 5.5559,-17.4252 7.3236,-22.2234 1.7678,-4.7982 -4.2931,-4.5457 -4.2931,-4.5457 z"
             style="color:#000000;display:inline;overflow:visible;visibility:visible;fill:#000000;fill-opacity:1;fill-rule:nonzero;stroke:none;stroke-width:15;marker:none;enable-background:accumulate" />
          <path
             style="color:#000000;display:inline;overflow:visible;visibility:visible;opacity:0.42477878;fill:#aa8800;fill-opacity:1;stroke:none;stroke-width:15;marker:none;enable-background:accumulate"
             d="m -2023.0312,-1684.9688 c -5.1614,0.1554 -13.1124,1.451 -13.8126,3.7188 0.6406,3.6101 1.8291,6.8215 3.125,9.9375 0.3732,-0.9774 0.9167,-1.9745 1.7813,-2.9687 3.2619,-3.7512 15.1055,-5.5939 23.125,-6.4376 -2.9688,-2.7033 -6.8264,-4.3945 -12.1875,-4.25 -0.5938,-0.025 -1.2939,-0.022 -2.0312,0 z m -30.3438,20 c -1.7688,-0.01 -3.6781,0.1048 -5.8125,0.3438 -7.6408,8.535 -13.4971,21.0345 -20.25,30.1562 -1.1174,5.4957 0.098,8.3162 2.4687,11 0.6973,-2.2961 1.981,-5.6181 4.375,-10.4062 6.3136,-12.6269 26.2636,-22.9881 28.0313,-27.2812 0.3861,-0.9378 1.2107,-1.497 2.2187,-1.8438 -2.9933,-1.1616 -6.4623,-1.9525 -11.0312,-1.9688 z m -37.8125,46.2188 c -2.1527,0.01 -4.4822,0.2299 -7.0937,0.875 -7.7845,6.406 -13.1083,16.7876 -18.9376,25.1562 -3.4119,3.5845 -4.9956,7.7763 -1.8124,11.5626 4.1564,5.6995 4.6268,3.9422 10.8124,7.75 2.4237,-0.3907 3.8126,-0.375 3.8126,-0.375 0,0 -10.3633,-10.1037 -5.3126,-18.4376 5.0508,-8.3338 12.1231,-17.4382 24.75,-20.4687 8.1128,-1.947 8.841,-3.8879 8.3126,-5.0313 -5.3516,0.1018 -9.5338,-1.0515 -14.5313,-1.0312 z m -31.9375,43.5 c -1.801,-0.011 -3.8061,0.1609 -6.125,0.5312 -4.811,2.9541 -7.7442,14.4079 -10.9688,18.9376 -5.1276,9.4222 -10.2864,18.9672 -14.5624,28.8124 18.1573,-31.1581 19.0456,-35.179 30.6874,-41 6.1653,-3.0826 11.1165,-4.5386 14.5313,-5.2187 -5.2976,-0.9289 -8.8352,-2.0332 -13.5625,-2.0625 z"
             transform="translate(214.15234,-140.4112)"
             id="path7542"
             inkscape:connector-curvature="0" />
          <path
             sodipodi:nodetypes="ccsac"
             inkscape:connector-curvature="0"
             id="path7544"
             d="m -1838.3514,-1794.7528 c -14.6472,2.0203 -18.0565,7.5762 -18.0565,7.5762 0,0 14.1422,-1.2627 18.1828,-1.7678 4.0406,-0.5051 2.6862,-2.4111 2.3991,-3.9143 -0.1974,-1.0336 -2.5254,-1.8941 -2.5254,-1.8941 z"
             style="color:#000000;display:inline;overflow:visible;visibility:visible;fill:#000000;fill-opacity:1;fill-rule:nonzero;stroke:none;stroke-width:15;marker:none;enable-background:accumulate" />
          <path
             sodipodi:nodetypes="ccsc"
             inkscape:connector-curvature="0"
             id="path7546"
             d="m -1846.9377,-1800.94 c -16.415,-4.7982 -16.7938,-4.4194 -16.7938,-4.4194 0,0 9.9398,8.2962 13.0058,9.4702 6.4444,2.4676 6.0475,-4.2533 3.788,-5.0508 z"
             style="color:#000000;display:inline;overflow:visible;visibility:visible;fill:#000000;fill-opacity:1;fill-rule:nonzero;stroke:none;stroke-width:15;marker:none;enable-background:accumulate" />
          <path
             inkscape:connector-curvature="0"
             id="path7548"
             d="m -1881.1566,-1743.7401 c -15.9099,4.0406 -16.6675,6.566 -16.6675,6.566 0,0 9.849,0 16.415,-1.7678 6.566,-1.7677 10.3541,-2.7779 7.5761,-4.0406 -2.7779,-1.2627 -7.3236,-0.7576 -7.3236,-0.7576 z"
             style="color:#000000;display:inline;overflow:visible;visibility:visible;fill:#000000;fill-opacity:1;fill-rule:nonzero;stroke:none;stroke-width:15;marker:none;enable-background:accumulate"
             sodipodi:nodetypes="ccccc" />
        </g>
      </g>
      <path
         sodipodi:nodetypes="csssc"
         inkscape:connector-curvature="0"
         id="path7550"
         d="m -3173.1579,-2723.4129 c 3.6934,-28.1282 17.7396,-26.8094 26.4672,-23.6435 12.6544,4.5902 15.3805,31.4304 8.4135,39.9747 -5.9207,7.2612 -13.948,9.9017 -25.1499,4.8863 -6.7391,-3.0172 -12.2926,-11.495 -9.7308,-21.2175 z"
         style="color:#000000;display:inline;overflow:visible;visibility:visible;fill:#181400;fill-opacity:1;fill-rule:nonzero;stroke:none;stroke-width:15;marker:none;enable-background:accumulate" />
      <path
         sodipodi:nodetypes="ccssc"
         inkscape:connector-curvature="0"
         id="path7552"
         d="m -3165.5118,-2719.6652 c -1.8579,-20.8875 10.2,-25.0046 16.898,-24.3871 6.6981,0.6175 8.0802,16.7394 7.5291,25.128 -0.571,8.6914 -3.4304,13.1606 -13.0914,13.768 -5.5923,0.3517 -9.6185,-2.499 -11.3357,-14.5089 z"
         style="color:#000000;display:inline;overflow:visible;visibility:visible;fill:#ffffff;fill-opacity:1;fill-rule:nonzero;stroke:none;stroke-width:15;marker:none;enable-background:accumulate" />
      <path
         sodipodi:nodetypes="ccccccccccc"
         inkscape:connector-curvature="0"
         id="path7554"
         d="m -3148.3204,-2739.9181 c -0.5159,-0.057 -1.1736,0.3457 -1.9111,0.9549 -6.9972,13.7285 -1.7631,28.5776 2.5293,27.3922 3.5814,-0.3633 6.4532,-2.0609 8.4974,-3.9408 0.2632,-1.262 0.467,-2.6584 0.5667,-4.1759 0.2619,-3.9861 0.069,-9.6979 -0.9053,-14.6831 -0.7,-2.1147 -1.2527,-3.7787 -1.2527,-3.7787 l -3.6943,10.3204 -2.8122,-10.3287 c -0.1403,-1.1869 -0.5022,-1.7029 -1.018,-1.7603 z"
         style="color:#000000;display:inline;overflow:visible;visibility:visible;fill:#181400;fill-opacity:1;fill-rule:nonzero;stroke:none;stroke-width:15;marker:none;enable-background:accumulate" />
    </g>
    <path
       style="color:#000000;display:inline;overflow:visible;visibility:visible;fill:#3f3307;fill-opacity:1;stroke:none;stroke-width:6.88867712;marker:none;enable-background:accumulate"
       d="M 169.69416,244.40326 C 139.65518,156.9426 145.5716,123.15848 102.06303,93.915444 58.554405,64.672399 -10.559925,127.66298 5.8748473,178.95289 22.30959,230.24284 123.42224,247.23513 123.42224,247.23513 Z"
       id="path7486"
       inkscape:connector-curvature="0"
       sodipodi:nodetypes="csscc" />
    <path
       style="color:#000000;display:inline;overflow:visible;visibility:visible;fill:#3f3307;fill-opacity:1;stroke:none;stroke-width:6.88867712;marker:none;enable-background:accumulate"
       d="M 165.90832,244.68763 C 154.89411,182.81516 135.02215,138.71211 140.51978,105.42796 146.01744,72.1439 218.40522,27.854653 253.21021,29.463926 c 34.80503,1.609272 81.20948,27.078584 93.85308,55.463115 12.77163,28.671979 -14.78867,66.986369 -48.9824,97.533899 C 263.88715,213.00841 191.0084,245.5514 191.0084,245.5514 Z"
       id="path7488"
       inkscape:connector-curvature="0"
       sodipodi:nodetypes="csssscc" />
    <path
       inkscape:connector-curvature="0"
       id="path7490"
       d="m 94.690468,138.71026 c -10.812323,-3.70822 -24.118219,-3.78767 -35.173638,-0.36752 -22.958491,6.31375 -40.226286,20.39025 -47.240518,36.12022 -4.488037,10.86341 -2.3554231,23.34112 8.640552,32.25498 10.036151,8.71142 23.864041,14.79329 38.476193,19.66554 l 0.59075,0.29071 1.796948,0.49208 c 0.373511,0.12062 0.74411,0.24083 1.118186,0.36016 -0.148605,-0.0585 -0.298285,-0.11576 -0.447054,-0.17481 l 29.054106,7.93222 0.19227,-0.0564 c 11.050847,2.46562 22.359457,4.42622 33.886577,5.51047 8.409,-0.16982 16.83417,-0.69338 25.22514,-1.09038 -0.41599,-0.17735 -0.83969,-0.36343 -1.26078,-0.58626 -3.83916,-2.03237 -29.53682,-13.62465 -29.53682,-13.62465 0,0 12.50268,2.79116 32.28779,11.80117 -0.29101,-0.33027 -0.56428,-0.68369 -0.84516,-1.06582 -3.46607,-4.71551 -46.28354,-31.12452 -46.28354,-31.12452 0,0 6.37231,2.82114 54.66515,32.18001 -3.02954,-5.97985 -5.38321,-12.15657 -7.93275,-18.25009 -7.24893,-17.8351 -13.02418,-35.95837 -22.72755,-53.24111 -1.55597,-2.41439 -3.35355,-4.76312 -5.3469,-7.03295 -2.03219,-2.88701 -12.13,-11.15893 -19.94626,-15.71879 0.0133,0.004 0.0262,0.01 0.0396,0.0139 -0.0866,-0.0475 -0.16857,-0.0961 -0.25575,-0.14289 -0.38955,-0.22496 -0.78462,-0.44739 -1.16082,-0.65205 l -0.28942,-0.099 c -0.23416,-0.11882 -0.467,-0.24354 -0.70214,-0.36205 -0.36163,-0.20394 -0.73023,-0.40542 -1.10206,-0.59864 -1.801009,-0.93596 -3.719899,-1.74625 -5.722151,-2.43296 z M 79.36182,161.01937 c 0.574447,0.19604 1.140566,0.43382 1.675233,0.71685 5.702812,3.01894 6.673511,9.99735 2.163251,13.8142 -4.510582,3.8172 -12.783077,4.47024 -18.485974,1.4513 -5.702812,-3.01894 -6.672182,-8.56464 -2.161621,-12.38182 4.087491,-3.45906 11.256528,-5.49545 16.809111,-3.60053 z m -17.012168,29.03699 c 0.701516,0.24615 1.344678,0.5222 1.898514,0.81539 4.094319,2.16742 4.783422,6.1456 1.545336,8.88581 -3.238388,2.74061 -9.188295,3.21062 -13.282656,1.04318 -4.094361,-2.16742 -7.690332,-7.68255 -4.451924,-10.42312 0.902197,-0.76349 2.239928,-1.23851 3.790037,-1.46835 3.009881,-0.44619 6.820814,7.1e-4 9.783656,0.91315 0.247007,0.0759 0.483105,0.15197 0.716972,0.23405 z m 10.904762,23.48356 c 0.1794,0.0669 0.354467,0.14565 0.518879,0.23285 2.632058,1.39334 3.066183,3.94686 0.984493,5.70848 -2.081904,1.76191 -5.890213,2.06567 -8.522333,0.67226 -2.632016,-1.39327 -7.144058,-7.87233 -3.91741,-7.25473 3.94853,0.75603 8.246737,-0.36472 10.936371,0.64114 z"
       style="color:#000000;display:inline;overflow:visible;visibility:visible;fill:#ffcc00;fill-opacity:1;stroke:none;stroke-width:5.79963589;marker:none;enable-background:accumulate" />
    <path
       id="path7492"
       d="m 316.3923,59.939852 c -0.5331,-0.3919 -1.06865,-0.778219 -1.60511,-1.163499 C 295.5165,45.573285 272.54428,35.655072 248.44117,35.879046 227.41013,37.73732 208.59366,48.223447 190.99086,58.653742 174.49918,69.1282 158.8634,81.991126 149.528,98.827394 c -1.37874,3.231646 -2.26117,6.547246 -2.78095,9.907146 23.84314,-29.972636 88.44377,-83.55165 142.31124,-56.940753 6.21573,3.070634 11.63022,6.454836 16.35255,10.061463 27.29539,20.846103 31.30673,48.84206 31.34073,63.34186 1.55625,-3.11682 2.97114,-6.29551 4.21308,-9.54872 4.01002,-11.42923 3.76057,-24.910055 -3.71921,-35.013892 -5.31382,-8.162975 -12.85699,-14.816224 -20.85299,-20.694823 z"
       style="color:#000000;display:inline;overflow:visible;visibility:visible;fill:#ffcc00;fill-opacity:1;stroke:none;stroke-width:6.88867712;marker:none;enable-background:accumulate"
       inkscape:connector-curvature="0" />
    <path
       sodipodi:nodetypes="ccccsccccscccsscscscccccccscccccccccccccccccccccccccc"
       inkscape:connector-curvature="0"
       id="path7494"
       d="m 256.96005,120.03276 c -19.94988,0.0503 -42.79638,6.57712 -65.09576,16.42606 0.0311,0.0499 0.052,0.10313 0.0827,0.15339 -1.79531,0.71566 -4.99986,2.05124 -8.71472,3.84428 0.42525,5.0747 4.20802,51.40455 2.61277,73.55111 -0.54619,7.58236 -0.87457,11.84568 -1.12448,14.97144 6.12636,-5.58756 9.42227,-4.03993 18.9632,-13.45998 -0.22415,1.05371 4.64857,-7.01185 3.6504,-5.32112 -0.0875,0.14827 -0.2114,0.34143 -0.35553,0.54919 20.08087,-21.78451 39.74766,-39.80785 43.68105,-48.52119 6.28132,-13.91446 7.16884,-38.82907 6.82956,-42.19318 -0.17667,0 -0.35204,0 -0.52917,0 z m 3.81993,0.0742 c -0.0386,2.31398 -0.41398,22.09947 -1.68672,30.47725 -1.35027,8.88789 -7.07853,20.39888 -22.94434,36.7607 -15.86585,16.36187 -42.20104,46.46298 -42.20104,46.46298 0,0 81.43423,-36.95551 111.40612,-61.21179 6.52186,-5.27812 14.17174,-17.77181 14.17174,-17.77181 0,0 -1.59602,9.57589 -8.10286,16.25784 -23.03721,23.65715 -66.38959,43.17487 -96.55638,58.3867 30.39147,-9.60884 60.08778,-20.24905 84.75762,-34.66293 12.51029,-7.44761 24.22891,-15.70272 32.89928,-24.93097 0.91151,-6.38589 -0.63036,-12.3477 -3.96875,-17.77677 -0.0124,0.009 -0.0594,0.0386 -0.0744,0.0494 -0.18497,-0.24702 -4.47173,-5.97722 -4.86998,-6.30327 0.004,-0.004 0.0696,-0.0415 0.0744,-0.0445 -5.65036,-6.02815 -13.50861,-11.20695 -22.35729,-15.31779 -4.87292,-2.26378 -10.05006,-4.20867 -15.32103,-5.79365 -1.70753,-0.5135 -3.42992,-0.98742 -5.1511,-1.42491 -1.90755,-0.75993 -7.97283,-1.64225 -8.35092,-1.69703 0.007,-0.0402 0.0177,-0.0836 0.0248,-0.12372 -1.18395,-0.21413 -2.38111,-0.40369 -3.55534,-0.57885 -2.66039,-0.39684 -5.39545,-0.64281 -8.19381,-0.75699 z m -45.91348,109.3619 c -1.59916,0.50559 -3.20132,1.0078 -4.80384,1.509 1.60272,-0.50037 3.20435,-1.00331 4.80384,-1.509 z m -33.98242,-87.84969 c -0.24079,0.12236 -0.47619,0.24035 -0.71934,0.3661 -0.005,-0.0112 -0.0114,-0.0288 -0.0165,-0.0396 -11.84535,5.88266 -23.34607,12.57959 -33.97416,19.57769 0.24688,4.56838 1.49915,9.17189 2.53835,13.62571 4.915,16.8365 13.59785,33.24093 19.00866,50.04504 0.76133,2.16517 1.48813,4.3323 2.18281,6.50114 0.88891,-2.24182 2.20905,-5.63191 3.67936,-9.45983 l 6.40788,-8.23281 c 5.34843,-32.4466 1.36436,-68.38553 0.89297,-72.38347 z m 25.7886,69.55341 c -0.0979,0.13389 -0.20996,0.28623 -0.32246,0.4354 0.11408,-0.15137 0.22351,-0.29982 0.32246,-0.4354 z m -8.01191,9.78144 c -1.15468,1.36145 -2.31591,2.7201 -3.37344,3.96303 -4.90948,4.66662 -4.9043,4.66955 0.008,0 1.0605,-1.24641 2.20816,-2.59862 3.36517,-3.96303 z"
       style="color:#000000;display:inline;overflow:visible;visibility:visible;fill:#ffcc00;fill-opacity:1;stroke:none;stroke-width:3.07004738;marker:none;enable-background:accumulate" />
    <path
       sodipodi:nodetypes="aaaaaa"
       inkscape:connector-curvature="0"
       id="path7496"
       d="m 71.701848,135.52999 c -3.208142,1.59863 -6.202435,5.88641 -5.010974,9.12172 1.002798,2.72299 5.370895,4.17123 8.352241,3.54981 2.338206,-0.48738 4.294768,-2.90099 4.700735,-5.12935 0.446423,-2.45083 -0.795516,-5.42441 -2.876559,-6.94844 -1.370639,-1.00374 -3.631414,-1.35817 -5.165443,-0.59374 z"
       style="color:#000000;display:inline;overflow:visible;visibility:visible;fill:#ffcc00;fill-opacity:1;fill-rule:nonzero;stroke:none;stroke-width:6.88867712;marker:none;enable-background:accumulate" />
    <path
       sodipodi:nodetypes="aaaaa"
       inkscape:connector-curvature="0"
       id="path7498"
       d="m 63.156413,173.50039 c -2.371287,-2.53815 -8.819478,-3.58094 -10.726543,-0.71503 -1.364461,2.05048 1.611517,5.07295 3.817849,6.30738 1.886994,1.05581 4.972637,1.52369 6.578956,0.11337 1.477276,-1.29694 1.664218,-4.27743 0.329738,-5.70577 z"
       style="color:#000000;display:inline;overflow:visible;visibility:visible;fill:#ffcc00;fill-opacity:1;fill-rule:nonzero;stroke:none;stroke-width:6.88867712;marker:none;enable-background:accumulate" />
    <path
       sodipodi:nodetypes="aaaaa"
       inkscape:connector-curvature="0"
       id="path7500"
       d="m 71.387992,205.29642 c -1.762873,-1.20161 -5.579633,-2.30015 -6.505501,-0.44262 -0.818536,1.64205 2.156953,3.37315 3.984273,3.9357 1.214297,0.37381 3.158536,0.41877 3.771391,-0.63939 0.523044,-0.90316 -0.366281,-2.25118 -1.250163,-2.85369 z"
       style="color:#000000;display:inline;overflow:visible;visibility:visible;fill:#ffcc00;fill-opacity:1;fill-rule:nonzero;stroke:none;stroke-width:6.88867712;marker:none;enable-background:accumulate" />
  </g>
</svg>
