<?xml version="1.0" encoding="UTF-8" standalone="no"?>
<!-- Created with Inkscape (http://www.inkscape.org/) -->

<svg
   xmlns:dc="http://purl.org/dc/elements/1.1/"
   xmlns:cc="http://creativecommons.org/ns#"
   xmlns:rdf="http://www.w3.org/1999/02/22-rdf-syntax-ns#"
   xmlns:svg="http://www.w3.org/2000/svg"
   xmlns="http://www.w3.org/2000/svg"
   xmlns:sodipodi="http://sodipodi.sourceforge.net/DTD/sodipodi-0.dtd"
   xmlns:inkscape="http://www.inkscape.org/namespaces/inkscape"
   width="355mm"
   height="300mm"
   viewBox="0 0 355 300"
   version="1.1"
   id="svg510"
   inkscape:version="0.92.4 (5da689c313, 2019-01-14)"
   sodipodi:docname="IdleButterFly2.svg">
  <title
     id="title43">IdleButterFly2</title>
  <defs
     id="defs504" />
  <sodipodi:namedview
     id="base"
     pagecolor="#ffffff"
     bordercolor="#666666"
     borderopacity="1.0"
     inkscape:pageopacity="0.0"
     inkscape:pageshadow="2"
     inkscape:zoom="0.35"
     inkscape:cx="310.84015"
     inkscape:cy="560"
     inkscape:document-units="mm"
     inkscape:current-layer="layer1"
     showgrid="false"
     inkscape:window-width="1920"
     inkscape:window-height="1017"
     inkscape:window-x="1592"
     inkscape:window-y="-8"
     inkscape:window-maximized="1" />
  <metadata
     id="metadata507">
    <rdf:RDF>
      <cc:Work
         rdf:about="">
        <dc:format>image/svg+xml</dc:format>
        <dc:type
           rdf:resource="http://purl.org/dc/dcmitype/StillImage" />
        <dc:title>IdleButterFly2</dc:title>
      </cc:Work>
    </rdf:RDF>
  </metadata>
  <g
     inkscape:label="Calque 1"
     inkscape:groupmode="layer"
     id="layer1"
     transform="translate(0,3)">
    <g
       id="g7502"
       transform="matrix(0.47214703,0.02066188,-0.02066188,0.47214703,1663.0793,1598.5912)"
       inkscape:export-filename="C:\Users\Robert\Desktop\butterfly\body-pieces-and-spriter-file\yellow\side-body.png"
       inkscape:export-xdpi="90"
       inkscape:export-ydpi="90">
      <path
         style="color:#000000;display:inline;overflow:visible;visibility:visible;fill:#180614;fill-opacity:1;fill-rule:nonzero;stroke:none;stroke-width:15;marker:none;enable-background:accumulate"
         d="m -3074.7148,-2819.099 c -6.6565,-0.1026 -15.6172,2.6769 -19.0153,10.5867 -20.8512,9.0528 -51.1663,28.7216 -65.7378,57.6841 l 7.5256,8.7099 c 12.0526,-32.0272 32.8361,-51.3541 60.5017,-60.6755 0.5616,0.2738 1.2774,0.6102 2.247,1.0265 3.513,1.5082 9.8121,1.1687 15.2632,0.4985 5.4511,-0.6703 12.5861,-2.0235 12.4649,-6.7156 -0.06,-2.3294 -0.5748,-3.828 -1.5899,-5.1614 l 0.021,-0.029 h -0.043 c -1.0296,-1.3406 -2.565,-2.5179 -4.6849,-4.1936 -1.3249,-1.0474 -3.9019,-1.6832 -6.9532,-1.7303 z"
         id="path7504"
         inkscape:connector-curvature="0" />
      <path
         inkscape:connector-curvature="0"
         id="path7506"
         d="m -3027.9645,-2818.5938 c -9.8126,-0.1093 -23.0219,2.8525 -28.0312,11.2813 -30.7375,9.6467 -75.4259,30.606 -96.9063,61.4687 l 11.0937,9.2813 c 17.7672,-34.1285 48.4049,-54.7234 89.1876,-64.6563 0.8279,0.2917 1.8831,0.6502 3.3124,1.0938 5.1787,1.6072 14.4644,1.2454 22.5,0.5312 8.0357,-0.7142 18.5537,-2.1562 18.375,-7.1562 -0.089,-2.4822 -0.8474,-4.0791 -2.3437,-5.5 l 0.031,-0.031 h -0.063 c -1.5178,-1.4286 -3.7812,-2.6831 -6.9062,-4.4688 -1.9531,-1.1161 -5.7519,-1.7936 -10.25,-1.8438 z"
         style="color:#000000;display:inline;overflow:visible;visibility:visible;fill:#180614;fill-opacity:1;fill-rule:nonzero;stroke:none;stroke-width:15;marker:none;enable-background:accumulate" />
      <path
         inkscape:connector-curvature="0"
         id="path7508"
         d="m -3171.4286,-2739.7808 c 0,-16.0714 3.5714,-19.2857 11.0714,-18.9285 7.5,0.3571 14.2857,10 14.2857,10 0,0 6.4286,35.3571 0,33.5714 -6.4285,-1.7857 -25.3571,-24.6429 -25.3571,-24.6429 z"
         style="color:#000000;display:inline;overflow:visible;visibility:visible;fill:#181400;fill-opacity:1;fill-rule:nonzero;stroke:none;stroke-width:15;marker:none;enable-background:accumulate" />
      <path
         sodipodi:nodetypes="csssc"
         inkscape:connector-curvature="0"
         id="path7510"
         d="m -3195.1128,-2741.5546 c 29.7277,-21.4429 50.9787,-10.5732 55.0131,3.0328 4.0318,13.5971 -0.8257,35.4229 -17.1309,46.1813 -8.3462,5.5069 -24.7241,4.8806 -33.9835,2.4438 -9.2594,-2.4367 -1.9494,-51.6579 -3.8987,-51.6579 z"
         style="color:#000000;display:inline;overflow:visible;visibility:visible;fill:#180614;fill-opacity:1;fill-rule:nonzero;stroke:none;stroke-width:15;marker:none;enable-background:accumulate" />
      <g
         transform="rotate(40.629957,-1933.3574,-2907.6541)"
         id="g7512">
        <g
           id="g7514"
           transform="rotate(11.034314,-1293.9701,-5956.1901)">
          <g
             transform="translate(-2.5253814,9.0913733)"
             id="g7516">
            <path
               style="color:#000000;display:inline;overflow:visible;visibility:visible;fill:#180614;fill-opacity:1;stroke:none;stroke-width:15;marker:none;enable-background:accumulate"
               d="m -2029.7828,-1703.8539 c 5,-43.2143 38.9286,-61.4285 53.9286,-58.9285 12.5444,2.0907 39.2857,21.0714 32.8571,36.7857 -6.4286,15.7142 -21.4286,57.8571 -43.5714,58.5715 -15.2618,0.4923 -47.5,-22.1429 -43.2143,-36.4287 z"
               id="path7518"
               inkscape:connector-curvature="0"
               sodipodi:nodetypes="csssc" />
            <path
               style="color:#000000;display:inline;overflow:visible;visibility:visible;fill:#3f3307;fill-opacity:1;stroke:none;stroke-width:15;marker:none;enable-background:accumulate"
               d="m -1979.5625,-1756.9707 c -24.1694,3.6933 -39.9198,26.9005 -43.875,49.625 -2.3009,7.2045 1.5439,14.3351 7.3125,18.5938 8.6499,8.1548 20.1331,16.2157 32.4688,14.625 13.7406,-5.1072 19.497,-20.6188 26.0031,-32.6336 3.6761,-8.387 8.803,-16.9529 9.1843,-26.1476 -3.5113,-12.1613 -15.6795,-18.9973 -26.6874,-23.5626 -1.4293,-0.408 -2.9196,-0.6318 -4.4063,-0.5 z"
               id="path7520"
               inkscape:connector-curvature="0" />
            <path
               id="path7522"
               transform="translate(2.5253814,-9.0913733)"
               d="m -1980.9688,-1747.9062 c -0.3711,-0.01 -0.7533,0 -1.125,0.031 -24.1693,3.6933 -39.9197,26.9005 -43.875,49.625 -2.3008,7.2045 1.5439,14.335 7.3126,18.5938 0.4771,0.4498 0.9747,0.8961 1.4687,1.3437 -5.3399,-36.1131 29.2451,-59.8508 46.375,-59.375 3.2199,0.089 6.0544,-0.4258 8.5,-1.3437 -4.6893,-3.5024 -10.1646,-6.1829 -15.375,-8.3438 -1.072,-0.306 -2.1679,-0.5048 -3.2813,-0.5312 z"
               style="color:#000000;display:inline;overflow:visible;visibility:visible;opacity:0.07079647;fill:#504416;fill-opacity:1;stroke:none;stroke-width:15;marker:none;enable-background:accumulate"
               inkscape:connector-curvature="0" />
            <path
               id="path7524"
               transform="translate(2.5253814,-9.0913733)"
               d="m -1958.7812,-1736.0625 c -2.9184,24.1189 -24.0295,49.6484 -35.25,62.5313 -1.7497,2.0088 -3.6803,4.2768 -5.6563,6.6874 4.309,1.6378 8.841,2.4133 13.5,1.8126 13.7406,-5.1072 19.4939,-20.6103 26,-32.625 3.6761,-8.387 8.8062,-16.9616 9.1875,-26.1563 -1.4083,-4.8777 -4.2211,-8.8885 -7.7812,-12.25 z"
               style="color:#000000;display:inline;overflow:visible;visibility:visible;opacity:0.17699112;fill:#000000;fill-opacity:1;stroke:none;stroke-width:15;marker:none;enable-background:accumulate"
               inkscape:connector-curvature="0" />
          </g>
        </g>
        <g
           id="g7526"
           transform="rotate(11.034314,-1913.7256,-7134.9452)">
          <path
             sodipodi:nodetypes="ccscccccscsscscccsccsc"
             inkscape:connector-curvature="0"
             id="path7528"
             d="m -1771.9602,-1794.3091 c -3.5903,6.4896 -7.1659,12.6676 -10.692,18.5995 -5.6107,0.4304 -12.4888,-2.489 -7.4939,5.7867 0.7437,1.2322 1.2665,2.5137 1.6411,3.8466 -9.8062,15.833 -19.3119,29.5873 -28.5355,41.5235 -9.9431,-1.2486 -15.8139,-5.2984 -11.364,-2.1997 1.8454,1.285 4.1497,4.8929 6.2313,8.6907 -12.6919,15.7161 -24.759,28.0353 -36.0855,37.7447 -6.7022,-1.466 -7.1754,-4.433 -9.3994,-5.4131 -4.1549,-1.831 10.7454,6.2939 -6.4472,17.7192 -32.6592,22.7632 -53.4408,21.0871 -67.4485,24.5553 -26.402,6.5369 5.9039,-51.1356 13.2603,-65.1314 7.3564,-13.9958 17.3888,-9.7431 17.3888,-9.7431 0,0 -6.8851,-9.2376 0.3688,-18.1837 7.254,-8.9462 20.7074,-24.8461 25.7981,-26.7636 5.0907,-1.9174 15.1531,0.3074 15.1531,0.3074 0,0 -5.8749,-9.1968 3.44,-20.1219 9.315,-10.9249 13.6575,-25.9993 22.7676,-26.8249 9.1099,-0.8255 20.0806,5.4708 20.0806,5.4708 l -3.6204,-20.2963 c 0,0 20.4432,-11.6995 34.3571,-0.3033 13.9138,11.3962 20.5996,30.7366 20.5996,30.7366 z"
             style="color:#000000;display:inline;overflow:visible;visibility:visible;fill:#180614;fill-opacity:1;stroke:none;stroke-width:15;marker:none;enable-background:accumulate" />
          <path
             sodipodi:nodetypes="ccccccccccccccccccccccccc"
             inkscape:connector-curvature="0"
             id="path7530"
             d="m -1806.8534,-1825.3781 c -4.7501,-0.1971 -15.033,1.1191 -15.8332,3.7109 1.6964,9.5601 7.0773,16.3382 8.7989,25.8938 -9.8644,-4.5827 -14.0836,-11.1766 -31.1587,-9.2647 -7.6408,8.535 -13.4735,21.0223 -20.2264,30.1441 -1.7952,8.8296 2.4187,10.7527 7.7993,16.3006 -10.6849,1.8134 -16.197,-2.2661 -26.6431,0.3142 -7.7844,6.406 -13.1192,16.7855 -18.9484,25.1542 -3.4119,3.5845 -5.011,7.7686 -1.8278,11.5549 4.3858,6.014 4.6042,3.6557 11.8337,8.371 -8.9435,-1.3 -12.7502,-3.4241 -22.0258,-1.9429 -4.811,2.9541 -7.7531,14.4249 -10.9776,18.9545 -7.8562,14.436 -15.8042,29.1305 -20.5,44.8125 -2.1333,6.047 6.6962,0.8778 10.0555,1.0456 19.0381,-3.8263 44.6591,-12.0755 60.5418,-23.6572 12.0772,-14.1971 -9.1798,-16.0116 -0.4098,-18.2634 5.7296,-1.47 10.5562,3.6368 16.0938,3.0625 9.8186,-9.2708 21.5347,-16.4354 29.0426,-27.2246 4.0588,-5.4742 -9.9465,-14.5712 -8.5647,-17.2027 3.0323,-2.249 15.0717,2.5358 19.4308,3.584 8.0329,-10.6167 21.8384,-27.2912 28.1497,-38.8982 -10.9254,-9.7207 -16.5783,-10.6271 3.7228,-14.7898 3.2704,1.2733 1.75,-4.0911 4.2188,-5.1874 2.1321,-2.5929 4.8955,-6.4166 1.7874,-9.3554 -5.4288,-10.4136 -7.7476,-27.5645 -24.3596,-27.1165 z"
             style="color:#000000;display:inline;overflow:visible;visibility:visible;fill:#3f3307;fill-opacity:1;stroke:none;stroke-width:15;marker:none;enable-background:accumulate" />
          <path
             id="path7532"
             d="m -1790.75,-1816.3438 c -0.8103,5.551 -2.3462,13.1999 -2.5312,16.5313 -0.2527,4.5457 -9.5946,14.1511 -12.625,14.6563 -3.0306,0.505 -11.625,14.1562 -11.625,14.1562 0,0 -5.798,21.95 -19.6876,30.0312 -13.8895,8.0814 -26.75,13.125 -26.75,13.125 0,0 2.001,15.9383 -4.3124,18.9688 -6.3135,3.0304 -12.8758,2.2432 -15.9063,6.0312 -2.5955,3.2445 -4.1303,27.24 -57.6563,38.3438 -1.7791,4.3063 -3.3866,8.6765 -4.7187,13.125 -2.1333,6.047 6.7032,0.8635 10.0625,1.0312 19.0381,-3.8262 44.6486,-12.0745 60.5312,-23.6562 12.0772,-14.1971 -9.1762,-15.9982 -0.4062,-18.25 5.7296,-1.47 10.5561,3.6368 16.0938,3.0625 9.8186,-9.2708 21.5233,-16.4296 29.0312,-27.2187 4.0588,-5.4743 -9.9443,-14.5873 -8.5625,-17.2188 3.0323,-2.249 15.0784,2.5456 19.4375,3.5938 8.0329,-10.6168 21.845,-27.2993 28.1562,-38.9063 -10.9254,-9.7207 -16.5823,-10.6185 3.7188,-14.7813 3.2704,1.2734 1.7499,-4.0912 4.2188,-5.1874 2.1321,-2.593 4.8893,-6.405 1.7812,-9.3438 -2.7882,-5.3483 -4.7449,-12.4881 -8.25,-18.0938 z"
             style="color:#000000;display:inline;overflow:visible;visibility:visible;opacity:0.25663715;fill:#000000;fill-opacity:1;fill-rule:nonzero;stroke:none;stroke-width:15;marker:none;enable-background:accumulate"
             inkscape:connector-curvature="0" />
          <path
             inkscape:connector-curvature="0"
             id="path7534"
             d="m -1914.7442,-1691.2122 c -16.1624,8.8389 -22.4759,18.1828 -20.7081,18.1828 1.7678,0 10.3541,-7.0711 16.9201,-10.1015 6.566,-3.0305 6.0609,-7.5762 6.0609,-7.5762 z"
             style="color:#000000;display:inline;overflow:visible;visibility:visible;fill:#000000;fill-opacity:1;fill-rule:nonzero;stroke:none;stroke-width:15;marker:none;enable-background:accumulate" />
          <path
             inkscape:connector-curvature="0"
             id="path7536"
             d="m -1856.1553,-1724.0421 c -6.0609,20.9607 -10.1015,25.2538 -6.3135,23.7386 3.7881,-1.5153 12.8795,-17.1726 12.8795,-21.4658 0,-4.2931 -5.8084,-5.5558 -5.8084,-5.5558 z"
             style="color:#000000;display:inline;overflow:visible;visibility:visible;fill:#000000;fill-opacity:1;fill-rule:nonzero;stroke:none;stroke-width:15;marker:none;enable-background:accumulate" />
          <path
             sodipodi:nodetypes="cccc"
             inkscape:connector-curvature="0"
             id="path7538"
             d="m -1808.0468,-1741.4673 c 2.0203,8.5863 3.6618,17.9303 3.6618,17.9303 0,0 3.6618,-18.9404 2.1466,-21.9709 -1.5152,-3.0304 -5.8084,4.0406 -5.8084,4.0406 z"
             style="color:#000000;display:inline;overflow:visible;visibility:visible;fill:#000000;fill-opacity:1;fill-rule:nonzero;stroke:none;stroke-width:15;marker:none;enable-background:accumulate" />
          <path
             inkscape:connector-curvature="0"
             id="path7540"
             d="m -1890.5005,-1673.5345 c -1.5152,18.1828 -3.0305,26.7691 -3.0305,26.7691 0,0 5.5559,-17.4252 7.3236,-22.2234 1.7678,-4.7982 -4.2931,-4.5457 -4.2931,-4.5457 z"
             style="color:#000000;display:inline;overflow:visible;visibility:visible;fill:#000000;fill-opacity:1;fill-rule:nonzero;stroke:none;stroke-width:15;marker:none;enable-background:accumulate" />
          <path
             style="color:#000000;display:inline;overflow:visible;visibility:visible;opacity:0.42477878;fill:#aa8800;fill-opacity:1;stroke:none;stroke-width:15;marker:none;enable-background:accumulate"
             d="m -2023.0312,-1684.9688 c -5.1614,0.1554 -13.1124,1.451 -13.8126,3.7188 0.6406,3.6101 1.8291,6.8215 3.125,9.9375 0.3732,-0.9774 0.9167,-1.9745 1.7813,-2.9687 3.2619,-3.7512 15.1055,-5.5939 23.125,-6.4376 -2.9688,-2.7033 -6.8264,-4.3945 -12.1875,-4.25 -0.5938,-0.025 -1.2939,-0.022 -2.0312,0 z m -30.3438,20 c -1.7688,-0.01 -3.6781,0.1048 -5.8125,0.3438 -7.6408,8.535 -13.4971,21.0345 -20.25,30.1562 -1.1174,5.4957 0.098,8.3162 2.4687,11 0.6973,-2.2961 1.981,-5.6181 4.375,-10.4062 6.3136,-12.6269 26.2636,-22.9881 28.0313,-27.2812 0.3861,-0.9378 1.2107,-1.497 2.2187,-1.8438 -2.9933,-1.1616 -6.4623,-1.9525 -11.0312,-1.9688 z m -37.8125,46.2188 c -2.1527,0.01 -4.4822,0.2299 -7.0937,0.875 -7.7845,6.406 -13.1083,16.7876 -18.9376,25.1562 -3.4119,3.5845 -4.9956,7.7763 -1.8124,11.5626 4.1564,5.6995 4.6268,3.9422 10.8124,7.75 2.4237,-0.3907 3.8126,-0.375 3.8126,-0.375 0,0 -10.3633,-10.1037 -5.3126,-18.4376 5.0508,-8.3338 12.1231,-17.4382 24.75,-20.4687 8.1128,-1.947 8.841,-3.8879 8.3126,-5.0313 -5.3516,0.1018 -9.5338,-1.0515 -14.5313,-1.0312 z m -31.9375,43.5 c -1.801,-0.011 -3.8061,0.1609 -6.125,0.5312 -4.811,2.9541 -7.7442,14.4079 -10.9688,18.9376 -5.1276,9.4222 -10.2864,18.9672 -14.5624,28.8124 18.1573,-31.1581 19.0456,-35.179 30.6874,-41 6.1653,-3.0826 11.1165,-4.5386 14.5313,-5.2187 -5.2976,-0.9289 -8.8352,-2.0332 -13.5625,-2.0625 z"
             transform="translate(214.15234,-140.4112)"
             id="path7542"
             inkscape:connector-curvature="0" />
          <path
             sodipodi:nodetypes="ccsac"
             inkscape:connector-curvature="0"
             id="path7544"
             d="m -1838.3514,-1794.7528 c -14.6472,2.0203 -18.0565,7.5762 -18.0565,7.5762 0,0 14.1422,-1.2627 18.1828,-1.7678 4.0406,-0.5051 2.6862,-2.4111 2.3991,-3.9143 -0.1974,-1.0336 -2.5254,-1.8941 -2.5254,-1.8941 z"
             style="color:#000000;display:inline;overflow:visible;visibility:visible;fill:#000000;fill-opacity:1;fill-rule:nonzero;stroke:none;stroke-width:15;marker:none;enable-background:accumulate" />
          <path
             sodipodi:nodetypes="ccsc"
             inkscape:connector-curvature="0"
             id="path7546"
             d="m -1846.9377,-1800.94 c -16.415,-4.7982 -16.7938,-4.4194 -16.7938,-4.4194 0,0 9.9398,8.2962 13.0058,9.4702 6.4444,2.4676 6.0475,-4.2533 3.788,-5.0508 z"
             style="color:#000000;display:inline;overflow:visible;visibility:visible;fill:#000000;fill-opacity:1;fill-rule:nonzero;stroke:none;stroke-width:15;marker:none;enable-background:accumulate" />
          <path
             inkscape:connector-curvature="0"
             id="path7548"
             d="m -1881.1566,-1743.7401 c -15.9099,4.0406 -16.6675,6.566 -16.6675,6.566 0,0 9.849,0 16.415,-1.7678 6.566,-1.7677 10.3541,-2.7779 7.5761,-4.0406 -2.7779,-1.2627 -7.3236,-0.7576 -7.3236,-0.7576 z"
             style="color:#000000;display:inline;overflow:visible;visibility:visible;fill:#000000;fill-opacity:1;fill-rule:nonzero;stroke:none;stroke-width:15;marker:none;enable-background:accumulate"
             sodipodi:nodetypes="ccccc" />
        </g>
      </g>
      <path
         sodipodi:nodetypes="csssc"
         inkscape:connector-curvature="0"
         id="path7550"
         d="m -3173.1579,-2723.4129 c 3.6934,-28.1282 17.7396,-26.8094 26.4672,-23.6435 12.6544,4.5902 15.3805,31.4304 8.4135,39.9747 -5.9207,7.2612 -13.948,9.9017 -25.1499,4.8863 -6.7391,-3.0172 -12.2926,-11.495 -9.7308,-21.2175 z"
         style="color:#000000;display:inline;overflow:visible;visibility:visible;fill:#181400;fill-opacity:1;fill-rule:nonzero;stroke:none;stroke-width:15;marker:none;enable-background:accumulate" />
      <path
         sodipodi:nodetypes="ccssc"
         inkscape:connector-curvature="0"
         id="path7552"
         d="m -3165.5118,-2719.6652 c -1.8579,-20.8875 10.2,-25.0046 16.898,-24.3871 6.6981,0.6175 8.0802,16.7394 7.5291,25.128 -0.571,8.6914 -3.4304,13.1606 -13.0914,13.768 -5.5923,0.3517 -9.6185,-2.499 -11.3357,-14.5089 z"
         style="color:#000000;display:inline;overflow:visible;visibility:visible;fill:#ffffff;fill-opacity:1;fill-rule:nonzero;stroke:none;stroke-width:15;marker:none;enable-background:accumulate" />
      <path
         sodipodi:nodetypes="ccccccccccc"
         inkscape:connector-curvature="0"
         id="path7554"
         d="m -3148.3204,-2739.9181 c -0.5159,-0.057 -1.1736,0.3457 -1.9111,0.9549 -6.9972,13.7285 -1.7631,28.5776 2.5293,27.3922 3.5814,-0.3633 6.4532,-2.0609 8.4974,-3.9408 0.2632,-1.262 0.467,-2.6584 0.5667,-4.1759 0.2619,-3.9861 0.069,-9.6979 -0.9053,-14.6831 -0.7,-2.1147 -1.2527,-3.7787 -1.2527,-3.7787 l -3.6943,10.3204 -2.8122,-10.3287 c -0.1403,-1.1869 -0.5022,-1.7029 -1.018,-1.7603 z"
         style="color:#000000;display:inline;overflow:visible;visibility:visible;fill:#181400;fill-opacity:1;fill-rule:nonzero;stroke:none;stroke-width:15;marker:none;enable-background:accumulate" />
    </g>
    <g
       transform="matrix(0.37067514,0.29317172,-0.29317172,0.37067514,815.09768,1870.42)"
       id="g7484"
       inkscape:export-filename="C:\Users\Robert\Desktop\butterfly\body-pieces-and-spriter-file\yellow\underwing.png"
       inkscape:export-xdpi="90"
       inkscape:export-ydpi="90">
      <path
         sodipodi:nodetypes="csscc"
         inkscape:connector-curvature="0"
         id="path7486"
         d="m -3205.673,-1851.6785 c -171.4286,-114.2857 -208.5715,-181.4285 -321.4286,-175.7143 -112.8572,5.7143 -140,207.1429 -41.4286,275.7143 98.5714,68.5715 290,-34.2857 290,-34.2857 z"
         style="color:#000000;display:inline;overflow:visible;visibility:visible;fill:#3f3307;fill-opacity:1;stroke:none;stroke-width:15;marker:none;enable-background:accumulate" />
      <path
         sodipodi:nodetypes="csssscc"
         inkscape:connector-curvature="0"
         id="path7488"
         d="m -3211.5607,-1846.2093 c -104.2857,-94.2857 -198.5714,-145.7143 -235.7143,-211.4286 -37.1428,-65.7143 21.4286,-238.5714 81.4286,-281.4285 60,-42.8572 172.4175,-59.005 232.8572,-25.7143 61.0517,33.6278 68.5714,137.1428 54.2857,235.7143 -14.2858,98.5714 -90,251.4285 -90,251.4285 z"
         style="color:#000000;display:inline;overflow:visible;visibility:visible;fill:#3f3307;fill-opacity:1;stroke:none;stroke-width:15;marker:none;enable-background:accumulate" />
      <path
         style="color:#000000;display:inline;overflow:visible;visibility:visible;fill:#ffcc00;fill-opacity:1;stroke:none;stroke-width:15;marker:none;enable-background:accumulate"
         d="m -3406.7812,-2229.4062 c -25.707,-0.036 -50.896,12.5444 -66.8126,32.8124 -34.1876,39.8692 -46.4906,96.1185 -37.0937,147.1563 7.1608,34.905 29.119,67.9841 62.6563,82.5 31.4375,14.8696 66.2399,18.6868 100.7812,18.3437 l 1.5312,0.25 4.0938,-0.3437 c 0.8772,-0.02 1.7485,-0.038 2.625,-0.062 -0.3643,-0.022 -0.7286,-0.039 -1.0938,-0.062 l 66.1563,-5.625 0.2813,-0.3437 c 24.37,-3.6921 48.4997,-9.0541 71.7812,-17.0938 15.6025,-8.57 30.7269,-18.1515 45.9688,-27.3438 -1.0389,-0.099 -2.1049,-0.2152 -3.2188,-0.4374 -10.1568,-2.0278 -75.25,-9.9376 -75.25,-9.9376 0,0 27.574,-4.1726 77.8125,2.1563 -1.0232,-0.6498 -2.0463,-1.3819 -3.125,-2.1875 -13.3113,-9.9413 -131.9687,-43.0938 -131.9687,-43.0938 0,0 16.0645,1.811 149.2812,38 -14.3064,-13.9211 -27.6222,-29.0469 -41.1875,-43.75 -39.3022,-43.2396 -76.2416,-88.7087 -119.375,-128.0312 -6.4034,-5.3005 -13.1677,-10.1836 -20.1875,-14.6562 -7.9803,-6.1729 -38.9021,-19.7457 -60.1875,-25.0626 0.032,6e-4 0.062,-5e-4 0.094,0 -0.2312,-0.05 -0.4558,-0.1083 -0.6874,-0.1562 -1.0575,-0.2585 -2.1218,-0.5046 -3.125,-0.7188 h -0.6876 c -0.6121,-0.1092 -1.2302,-0.2363 -1.8437,-0.3437 -0.9747,-0.2262 -1.959,-0.4388 -2.9375,-0.625 -4.7396,-0.9021 -9.5207,-1.337 -14.2812,-1.3437 z m 3.1874,77.5624 c 1.3644,-8e-4 2.7731,0.1239 4.1876,0.4063 15.0872,3.0121 26.9494,21.7259 23.9374,36.8125 -3.0121,15.0879 -17.6626,24.8871 -32.75,21.875 -15.0872,-3.0121 -24.8871,-17.6934 -21.875,-32.7812 2.7297,-13.6724 13.3119,-26.3046 26.5,-26.3126 z m 9.6876,98.125 c 1.6759,0.018 3.2848,0.1763 4.75,0.4688 10.8318,2.1625 17.8499,12.7001 15.6874,23.5312 -2.1625,10.8325 -12.6993,17.8813 -23.5312,15.7188 -10.8319,-2.1625 -25.5376,-14.2301 -23.375,-25.0625 0.6025,-3.0178 2.4405,-5.6425 5.0312,-7.7813 5.0306,-4.1526 12.8553,-6.5605 19.75,-6.8437 0.5746,-0.024 1.1289,-0.037 1.6876,-0.031 z m 54.3124,55.625 c 0.4344,0.016 0.8774,0.069 1.3126,0.1563 6.9633,1.3902 11.4526,8.1619 10.0624,15.125 -1.3902,6.9641 -8.1302,11.484 -15.0937,10.0937 -6.9631,-1.39 -24.781,-15.2901 -17.8125,-16.6562 8.5279,-1.671 15.0165,-8.9626 21.5312,-8.7188 z"
         id="path7490"
         inkscape:connector-curvature="0"
         transform="rotate(-11.290406,-2374.6566,-1470.7733)" />
      <path
         inkscape:connector-curvature="0"
         style="color:#000000;display:inline;overflow:visible;visibility:visible;fill:#ffcc00;fill-opacity:1;stroke:none;stroke-width:15;marker:none;enable-background:accumulate"
         d="m -3218.625,-2368.4375 c -1.4295,0.011 -2.8553,0.035 -4.2812,0.062 -50.335,2.0901 -102.247,14.8121 -141.9376,46.8438 -32.3204,30.8716 -48.9722,74.0001 -63.6874,115.4374 -12.8098,40.0564 -20.879,83.1872 -12.9688,125.0313 2.204,7.4895 5.3484,14.4751 9.1562,21.0625 -2.0932,-83.9748 30.6412,-262.9375 157.0313,-286.875 14.5841,-2.7621 28.2743,-3.9214 41.125,-3.7812 74.2772,0.8095 119.8505,44.7481 140.0625,70.1874 -1.7498,-7.5207 -3.8202,-14.9646 -6.2812,-22.3124 -9.2322,-25.3509 -28.3853,-48.7165 -54.8438,-56.6563 -20.1659,-7.3717 -41.9331,-9.1638 -63.375,-9 z"
         id="path7492" />
      <path
         style="color:#000000;display:inline;overflow:visible;visibility:visible;fill:#ffcc00;fill-opacity:1;stroke:none;stroke-width:15;marker:none;enable-background:accumulate"
         d="m -5.53125,3068.5 c -75.401153,0.3177 -161.7501,41.5423 -246.03125,103.75 0.1174,0.3149 0.19656,0.6518 0.3125,0.9688 -6.78543,4.5203 -18.89711,12.956 -32.9375,24.2812 1.60722,32.0527 15.90432,324.6807 9.875,464.5625 -2.06431,47.8916 -3.30546,74.8196 -4.25,94.5625 23.15475,-35.2921 35.61173,-25.517 71.67195,-85.0158 -0.84717,6.6554 17.56939,-44.2882 13.7968,-33.6092 -0.33081,0.9365 -0.79902,2.1565 -1.34375,3.4688 75.8962,-137.595 150.22738,-251.4338 165.09375,-306.4688 23.7403939,-87.8864 27.0948128,-245.2517 25.8125,-266.5 -0.6677145,0 -1.3305476,0 -2,0 z m 14.4375,0.4688 c -0.1459428,14.6155 -1.5646237,139.5844 -6.375,192.5 -5.1033552,56.1376 -26.753494,128.8431 -86.71875,232.1874 -59.96543,103.3446 -159.5,293.4688 -159.5,293.4688 0,0 307.782907,-233.4179 421.0625,-386.625 24.64957,-33.3376 53.5625,-112.25 53.5625,-112.25 0,0 -6.03223,60.483 -30.625,102.6875 -87.06978,149.423 -250.92128,272.7005 -364.9375,368.7813 114.865393,-60.6913 227.103414,-127.8968 320.34375,-218.9376 47.28301,-47.0405 91.57386,-99.1813 124.34375,-157.4687 3.4451,-40.3344 -2.38247,-77.9903 -15,-112.2813 -0.0468,0.052 -0.22435,0.2443 -0.28125,0.3126 -0.69911,-1.5602 -16.90103,-37.7533 -18.40625,-39.8126 0.0138,-0.027 0.26327,-0.2617 0.28125,-0.2812 -21.35571,-38.0749 -51.05617,-70.7851 -84.5,-96.75 -18.41733,-14.2984 -37.98448,-26.5828 -57.90625,-36.5938 -6.453682,-3.2433 -12.963469,-6.2367 -19.46875,-9 -7.209619,-4.7998 -30.133508,-10.3727 -31.5625,-10.7187 0.02739,-0.254 0.06668,-0.5279 0.09375,-0.7813 -4.474755,-1.3525 -8.999482,-2.5498 -13.4375,-3.6562 -10.055017,-2.5065 -20.392256,-4.06 -30.96875,-4.7812 z m -173.53125,690.75 c -6.04406,3.1934 -12.09949,6.3655 -18.15625,9.5312 6.05754,-3.1605 12.11095,-6.3371 18.15625,-9.5312 z m -128.4375,-554.875 c -0.91006,0.7733 -1.79975,1.5182 -2.71875,2.3124 -0.0194,-0.068 -0.0431,-0.1819 -0.0625,-0.25 -44.76982,37.156 -88.2371,79.455 -128.40625,123.6563 0.93308,28.8547 5.66607,57.9313 9.59375,86.0625 18.57638,106.3425 51.39347,209.956 71.84375,316.0938 2.87746,13.6756 5.62445,27.3636 8.25,41.0624 3.35968,-14.1597 8.34915,-35.5722 13.90625,-59.75 l 24.21875,-52 c 20.21456,-204.9387 5.15664,-431.9356 3.375,-457.1874 z m 97.46875,439.3124 c -0.3699,0.8456 -0.79356,1.8078 -1.21875,2.75 0.43116,-0.9561 0.84474,-1.8937 1.21875,-2.75 z m -30.28125,61.7813 c -4.36415,8.5992 -8.75306,17.1807 -12.75,25.0313 -18.55551,29.4752 -18.53595,29.4937 0.0312,0 4.00819,-7.8726 8.34581,-16.4134 12.71875,-25.0313 z"
         transform="matrix(0.43910718,-0.3472955,0.3472955,0.43910718,-4388.3957,-3649.7212)"
         id="path7494"
         inkscape:connector-curvature="0"
         sodipodi:nodetypes="ccccsccccscccsscscscccccccscccccccccccccccccccccccccc" />
      <path
         style="color:#000000;display:inline;overflow:visible;visibility:visible;fill:#ffcc00;fill-opacity:1;fill-rule:nonzero;stroke:none;stroke-width:15;marker:none;enable-background:accumulate"
         d="m -3519.6429,-1914.4012 c -3.1021,7.0207 -2.1112,18.487 4.3634,22.6092 5.4494,3.4695 14.7119,0.2812 18.796,-4.7243 3.203,-3.9258 3.0951,-10.736 0.6713,-15.1853 -2.6659,-4.8934 -8.8605,-8.4894 -14.4327,-8.4363 -3.67,0.035 -7.9147,2.3796 -9.398,5.7367 z"
         id="path7496"
         inkscape:connector-curvature="0"
         sodipodi:nodetypes="aaaaaa" />
      <path
         style="color:#000000;display:inline;overflow:visible;visibility:visible;fill:#ffcc00;fill-opacity:1;fill-rule:nonzero;stroke:none;stroke-width:15;marker:none;enable-background:accumulate"
         d="m -3481.044,-1836.45 c -7.4636,-1.3483 -19.6147,5.2829 -18.7959,12.8231 0.5858,5.3948 9.7262,6.8006 15.1038,6.0741 4.5993,-0.6213 10.3707,-3.8492 11.0762,-8.4363 0.6489,-4.2185 -3.1839,-9.7022 -7.3841,-10.4609 z"
         id="path7498"
         inkscape:connector-curvature="0"
         sodipodi:nodetypes="aaaaa" />
      <path
         style="color:#000000;display:inline;overflow:visible;visibility:visible;fill:#ffcc00;fill-opacity:1;fill-rule:nonzero;stroke:none;stroke-width:15;marker:none;enable-background:accumulate"
         d="m -3423.1844,-1791.3722 c -4.596,0.2021 -12.4574,3.2813 -11.4119,7.7613 0.9241,3.9604 8.2686,3.0972 12.0832,1.6873 2.5349,-0.9369 5.8241,-3.4099 5.3703,-6.0741 -0.3874,-2.2739 -3.7372,-3.4758 -6.0416,-3.3745 z"
         id="path7500"
         inkscape:connector-curvature="0"
         sodipodi:nodetypes="aaaaa" />
    </g>
  </g>
</svg>
